<?xml version="1.0" encoding="UTF-8"?>
<svg id="Layer_1" data-name="Layer 1" xmlns="http://www.w3.org/2000/svg" viewBox="0 0 512 512">
  <g>
    <rect x="42.681" y="305.595" width="108.32" height="186.898" rx="4.5" ry="4.5"/>
    <path d="m146.501,309.595c.276,0,.5.224.5.5v177.898c0,.276-.224.5-.5.5H47.181c-.276,0-.5-.224-.5-.5v-177.898c0-.276.224-.5.5-.5h99.321m0-8H47.181c-4.694,0-8.5,3.806-8.5,8.5v177.898c0,4.694,3.806,8.5,8.5,8.5h99.321c4.694,0,8.5-3.806,8.5-8.5v-177.898c0-4.694-3.806-8.5-8.5-8.5h0Z"/>
  </g>
  <g>
    <rect x="361.499" y="24.007" width="101.32" height="463.986" rx="1" ry="1"/>
    <path d="m455.319,31.507v448.986h-86.321V31.507h86.321m6.5-15h-99.321c-4.694,0-8.5,3.806-8.5,8.5v461.986c0,4.694,3.806,8.5,8.5,8.5h99.321c4.694,0,8.5-3.806,8.5-8.5V25.007c0-4.694-3.806-8.5-8.5-8.5h0Z"/>
  </g>
  <g>
    <rect x="203.84" y="166.051" width="101.32" height="321.942" rx="1" ry="1"/>
    <path d="m297.66,173.551v306.942h-86.321V173.551h86.321m6.5-15h-99.321c-4.694,0-8.5,3.806-8.5,8.5v319.942c0,4.694,3.806,8.5,8.5,8.5h99.321c4.694,0,8.5-3.806,8.5-8.5V167.051c0-4.694-3.806-8.5-8.5-8.5h0Z"/>
  </g>
</svg>