<?xml version="1.0" encoding="UTF-8"?>
<svg id="Layer_1" data-name="Layer 1" xmlns="http://www.w3.org/2000/svg" viewBox="0 0 512 512">
  <g>
    <rect x="44.181" y="305.262" width="108.321" height="186.898" rx="4.5" ry="4.5"/>
    <path d="m148.001,309.262c.276,0,.5.224.5.5v177.898c0,.276-.224.5-.5.5H48.681c-.276,0-.5-.224-.5-.5v-177.898c0-.276.224-.5.5-.5h99.321m0-8H48.681c-4.694,0-8.5,3.806-8.5,8.5v177.898c0,4.694,3.806,8.5,8.5,8.5h99.321c4.694,0,8.5-3.806,8.5-8.5v-177.898c0-4.694-3.806-8.5-8.5-8.5h0Z"/>
  </g>
  <path d="m456.819,31.174v448.986h-86.321V31.174h86.321m6.5-15h-99.321c-4.694,0-8.5,3.806-8.5,8.5v461.986c0,4.695,3.806,8.5,8.5,8.5h99.321c4.694,0,8.5-3.805,8.5-8.5V24.674c0-4.694-3.806-8.5-8.5-8.5h0Z"/>
  <path d="m299.16,173.218v306.942h-86.321V173.218h86.321m6.5-15h-99.321c-4.694,0-8.5,3.806-8.5,8.5v319.942c0,4.694,3.806,8.5,8.5,8.5h99.321c4.694,0,8.5-3.806,8.5-8.5V166.718c0-4.694-3.806-8.5-8.5-8.5h0Z"/>
</svg>